<svg width="497" height="156" viewBox="0 0 497 156" fill="none" xmlns="http://www.w3.org/2000/svg">
<path d="M0 3.15015H131.704V59.5955C109.646 56.4724 87.373 55.9058 64.9041 57.8957V64.7153H109.66V112H64.9041V152.048H0V3.15015Z" fill="#FFACAC"/>
<path d="M206.126 107.953C203.576 107.677 202.315 108.378 202.315 110.085C202.315 111.791 203.367 112.931 205.499 113.498C206.065 113.64 206.706 113.714 207.408 113.714C226.49 114.429 248.197 110.51 272.514 101.99L267.63 148.001C263.253 150.132 255.826 152.021 245.357 153.647C234.895 155.272 222.308 155.812 207.603 155.245C193.748 154.82 181.519 151.34 170.915 144.81C160.311 138.281 152.284 129.936 146.848 119.785C141.404 109.626 138.605 98.6649 138.463 86.8672C138.328 81.9026 138.854 76.7828 140.055 71.5282C141.262 66.2735 143.556 60.6681 146.942 54.7052C150.328 48.7423 154.605 43.4876 159.778 38.9412C164.939 34.4016 171.934 30.6377 180.77 27.6495C189.607 24.6613 199.603 23.2515 210.78 23.3931C230.43 23.5348 245.31 26.5972 255.421 32.5534C265.533 38.5163 271.435 48.2431 273.128 61.7406C273.829 67.7036 273.344 73.1741 271.651 78.1454C269.958 83.1235 267.408 87.191 264.022 90.395C260.635 93.5991 256.71 96.4322 252.251 98.9145C247.799 101.397 243.205 103.178 238.463 104.243C233.721 105.302 229.168 106.274 224.784 107.117C220.406 107.974 216.575 108.324 213.33 108.189C210.079 108.048 207.671 107.974 206.112 107.974V107.947L206.126 107.953ZM209.101 59.3798C205 59.6698 201.998 62.0779 200.089 66.6243C198.18 71.1707 198.22 75.4945 200.19 79.6159C208.669 74.3613 213.418 71.3865 214.396 70.6715C215.812 69.3967 216.514 67.8385 216.514 65.9835C216.514 64.1285 215.812 62.5838 214.396 61.2954C212.703 59.8857 210.935 59.2381 209.087 59.3798H209.101Z" fill="#FFACAC"/>
<path d="M348.716 152.048C349.984 138.84 350.659 125.356 350.74 111.569C350.8 97.7947 350.213 86.793 348.932 78.5501C348.797 76.9852 348.257 75.8182 347.34 75.0358C346.423 74.2533 345.431 73.8621 344.365 73.8621C343.299 73.8621 342.321 74.2533 341.391 75.0358C340.473 75.8182 339.873 76.9919 339.583 78.5501C338.456 86.6378 337.917 97.6193 337.991 111.454C338.052 125.302 338.733 138.827 340.014 152.034H280.203V23.5887H338.099V34.6646C340.082 32.3982 343.859 29.9766 349.438 27.4201C355.023 24.8636 360.568 23.5887 366.085 23.5887C379.664 23.4471 389.762 28.2025 396.413 37.8687C398.396 33.4707 402.463 29.9901 408.608 27.4336C414.753 24.8771 420.73 23.6022 426.524 23.6022C431.617 23.4605 436.285 23.9192 440.527 24.9917C444.77 26.0643 448.447 27.3729 451.556 28.9378C454.666 30.5027 457.418 32.6275 459.826 35.3257C462.234 38.0238 464.204 40.5399 465.762 42.8873C467.32 45.2346 468.622 48.1419 469.688 51.6225C470.74 55.1031 471.523 58.0509 472.022 60.459C472.514 62.8806 472.899 65.8148 473.189 69.2954C473.465 72.7761 473.641 75.3663 473.715 77.0729C473.789 78.7727 473.755 80.9784 473.614 83.6766V152.055H414.018C415.286 138.847 415.961 125.323 416.035 111.474C416.096 97.626 415.509 86.6581 414.227 78.5703C414.092 77.0054 413.553 75.8385 412.635 75.056C411.718 74.2735 410.726 73.8823 409.661 73.8823C408.595 73.8823 407.617 74.2735 406.686 75.056C405.769 75.8385 405.229 77.0122 405.094 78.5703C403.826 86.6581 403.212 97.6395 403.286 111.474C403.347 125.323 404.028 138.847 405.303 152.055H348.676H348.716V152.048Z" fill="#FFACAC"/>
<path d="M484.205 7.94604V9.30187H481.918V15.6223H480.313V9.30187H478.013V7.94604H484.205Z" fill="#FFACAC"/>
<path d="M486.606 15.6292H485.122V7.95294H487.442L488.832 13.9901L490.208 7.95294H492.508V15.6292H491.024V9.18735L489.574 15.6292H488.023L486.579 9.18735V15.6292H486.606Z" fill="#FFACAC"/>
<path d="M485.263 23.582C478.795 23.582 473.526 18.2936 473.526 11.791C473.526 5.28847 478.795 9.15527e-05 485.263 9.15527e-05C491.732 9.15527e-05 497 5.28847 497 11.791C497 18.2936 491.732 23.582 485.263 23.582ZM485.263 2.05743C479.928 2.05743 475.577 6.42844 475.577 11.791C475.577 17.1536 479.928 21.5246 485.263 21.5246C490.599 21.5246 494.95 17.1536 494.95 11.791C494.95 6.42844 490.599 2.05743 485.263 2.05743Z" fill="#FFACAC"/>
</svg>
