<svg width="2000" height="626" viewBox="0 0 2000 626" fill="none" xmlns="http://www.w3.org/2000/svg">
<path d="M0 12.6766H529.995V239.821C441.232 227.253 351.602 224.973 261.184 232.981V260.424H441.287V450.706H261.184V611.862H0V12.6766Z" fill="white"/>
<path d="M829.481 434.42C819.22 433.307 814.144 436.13 814.144 442.997C814.144 449.865 818.379 454.452 826.956 456.732C829.237 457.302 831.815 457.601 834.638 457.601C911.43 460.478 998.781 444.707 1096.64 410.424L1076.98 595.576C1059.37 604.154 1029.48 611.754 987.353 618.296C945.252 624.838 894.6 627.009 835.426 624.729C779.671 623.019 730.458 609.012 687.787 582.737C645.116 556.461 612.814 522.883 590.936 482.031C569.03 441.151 557.765 397.042 557.195 349.566C556.652 329.588 558.77 308.985 563.601 287.84C568.46 266.694 577.689 244.137 591.316 220.142C604.942 196.146 622.152 175.001 642.972 156.705C663.737 138.437 691.886 123.29 727.445 111.265C763.004 99.2405 803.232 93.5673 848.211 94.1373C927.282 94.7074 987.163 107.031 1027.85 130.999C1068.54 154.995 1092.29 194.137 1099.11 248.453C1101.93 272.449 1099.97 294.463 1093.16 314.468C1086.35 334.501 1076.09 350.869 1062.46 363.763C1048.83 376.656 1033.04 388.057 1015.09 398.046C997.179 408.035 978.694 415.201 959.611 419.49C940.529 423.752 922.206 427.661 904.562 431.054C886.946 434.501 871.528 435.913 858.471 435.37C845.388 434.8 835.697 434.501 829.427 434.501V434.392L829.481 434.42ZM841.452 238.953C824.948 240.12 812.869 249.811 805.187 268.106C797.505 286.401 797.668 303.801 805.594 320.386C839.714 299.24 858.824 287.27 862.76 284.392C868.46 279.262 871.283 272.992 871.283 265.527C871.283 258.062 868.46 251.846 862.76 246.662C855.947 240.989 848.835 238.383 841.397 238.953H841.452Z" fill="white"/>
<path d="M1403.28 611.863C1408.39 558.714 1411.1 504.452 1411.43 448.969C1411.67 393.54 1409.31 349.268 1404.15 316.097C1403.61 309.8 1401.44 305.104 1397.75 301.955C1394.05 298.806 1390.06 297.232 1385.78 297.232C1381.49 297.232 1377.55 298.806 1373.81 301.955C1370.11 305.104 1367.7 309.827 1366.53 316.097C1362 348.643 1359.83 392.834 1360.12 448.507C1360.37 504.235 1363.11 558.66 1368.27 611.808H1127.58V94.9244H1360.56V139.496C1368.54 130.375 1383.74 120.63 1406.19 110.342C1428.66 100.055 1450.98 94.9244 1473.18 94.9244C1527.82 94.3544 1568.46 113.491 1595.22 152.389C1603.2 134.691 1619.57 120.684 1644.3 110.397C1669.03 100.109 1693.08 94.9787 1716.39 94.9787C1736.89 94.4087 1755.67 96.2545 1772.75 100.57C1789.82 104.886 1804.61 110.152 1817.13 116.45C1829.64 122.747 1840.72 131.298 1850.41 142.156C1860.1 153.013 1868.02 163.138 1874.29 172.585C1880.56 182.031 1885.8 193.73 1890.09 207.737C1894.33 221.743 1897.48 233.605 1899.48 243.296C1901.47 253.041 1903.01 264.848 1904.18 278.855C1905.29 292.861 1906 303.285 1906.3 310.152C1906.6 316.993 1906.46 325.869 1905.89 336.727V611.89H1666.07C1671.17 558.741 1673.89 504.316 1674.19 448.589C1674.43 392.861 1672.07 348.725 1666.91 316.178C1666.37 309.881 1664.2 305.185 1660.5 302.036C1656.81 298.888 1652.82 297.313 1648.53 297.313C1644.24 297.313 1640.31 298.888 1636.56 302.036C1632.87 305.185 1630.7 309.908 1630.16 316.178C1625.05 348.725 1622.58 392.916 1622.88 448.589C1623.13 504.316 1625.87 558.741 1631 611.89H1403.12H1403.28V611.863Z" fill="white"/>
<path d="M1948.51 31.976V37.432H1939.31V62.8663H1932.85V37.432H1923.59V31.976H1948.51Z" fill="white"/>
<path d="M1958.17 62.8941H1952.2V32.0037H1961.54L1967.13 56.298L1972.67 32.0037H1981.92V62.8941H1975.95V36.9712L1970.11 62.8941H1963.87L1958.06 36.9712V62.8941H1958.17Z" fill="white"/>
<path d="M1952.77 94.8972C1926.74 94.8972 1905.54 73.616 1905.54 47.4488C1905.54 21.2816 1926.74 0.000396729 1952.77 0.000396729C1978.8 0.000396729 2000 21.2816 2000 47.4488C2000 73.616 1978.8 94.8972 1952.77 94.8972ZM1952.77 8.27944C1931.3 8.27944 1913.79 25.869 1913.79 47.4488C1913.79 69.0286 1931.3 86.6182 1952.77 86.6182C1974.24 86.6182 1991.75 69.0286 1991.75 47.4488C1991.75 25.869 1974.24 8.27944 1952.77 8.27944Z" fill="white"/>
</svg>
